# xmcd
#
# Track frame offsets: 
#        150
#        31442
#        63209
#        82427
#        100093
#        124084
#        146589
#        166027
#        184665
#        208926
#        225046
#        243848
#        275042
#        302837
#
# Disc length: 4337 seconds
#
# Revision: 0
# Processed by: cddbd v1.5.2PL0 Copyright (c) Steve Scherf et al.
# Submitted via: ExactAudioCopy v0.99pb4
#
DISCID=bd10ef0e
DTITLE=Black Soul - Black Soul [CD2]
DYEAR=2007
DGENRE=Soul
TTITLE0=Come On (Black Brothers)
TTITLE1=Ahoe (Mangous Ye)
TTITLE2=Doo Malafate (Africa Africa)
TTITLE3=Come On (Black Brothers)
TTITLE4=Together (People)
TTITLE5=Boogie Dance (Let's Dance)
TTITLE6=Hello People
TTITLE7=Bahe Baya (Dakar Sound)
TTITLE8=Black Music (Black Soul Music) By Fatt Bross
TTITLE9=Come On (Black Brothers)
TTITLE10=Hello People
TTITLE11=Soul Disco Song (Disco Music)
TTITLE12=Ahoe (Mangous Ye) [Tribal Remix]
TTITLE13=African Woman
EXTD=
EXTT0=
EXTT1=
EXTT2=
EXTT3=
EXTT4=
EXTT5=
EXTT6=
EXTT7=
EXTT8=
EXTT9=
EXTT10=
EXTT11=
EXTT12=
EXTT13=
PLAYORDER=
